PathFileType	4	(X/Y/Z)	 0.16m3min.trc
DataRate	CameraRate	NumFrames	NumMarkers	Units	OrigDataRate	OrigDataStartFrame	OrigNumFrames
200	200	9	43	m	200	626	1000
Frame#	Time	C7			LSH			RSH			MAN			RASI			LASI			HIPR			HIPL			RPSI			LPSI			COX			RTHI1			RTHI2			RTHI3			RTHI4			RLKN			RMKN			RSHA1			RSHA2			RSHA3			RSHA4			RLMAL			RMMAL			RHEEL			RMET5			RMET1			RTOE			LTHI1			LTHI2			LTHI3			LTHI4			LLKN			LMKN			LSHA1			LSHA2			LSHA3			LSHA4			LLMAL			LMMAL			LHEEL			LMET5			LMET1			LTOE			
		X1	Y1	Z1	X2	Y2	Z2	X3	Y3	Z3	X4	Y4	Z4	X5	Y5	Z5	X6	Y6	Z6	X7	Y7	Z7	X8	Y8	Z8	X9	Y9	Z9	X10	Y10	Z10	X11	Y11	Z11	X12	Y12	Z12	X13	Y13	Z13	X14	Y14	Z14	X15	Y15	Z15	X16	Y16	Z16	X17	Y17	Z17	X18	Y18	Z18	X19	Y19	Z19	X20	Y20	Z20	X21	Y21	Z21	X22	Y22	Z22	X23	Y23	Z23	X24	Y24	Z24	X25	Y25	Z25	X26	Y26	Z26	X27	Y27	Z27	X28	Y28	Z28	X29	Y29	Z29	X30	Y30	Z30	X31	Y31	Z31	X32	Y32	Z32	X33	Y33	Z33	X34	Y34	Z34	X35	Y35	Z35	X36	Y36	Z36	X37	Y37	Z37	X38	Y38	Z38	X39	Y39	Z39	X40	Y40	Z40	X41	Y41	Z41	X42	Y42	Z42	X43	Y43	Z43	
626	3.1300	-0.279799	1.369425	-0.480090	-0.287595	1.348758	-0.663913	-0.183957	1.345156	-0.309867	-0.156817	1.290825	-0.505317	-0.193529	0.881241	-0.376655	-0.228930	0.879450	-0.603259	-0.246277	0.924712	-0.336553	-0.294965	0.914295	-0.622631	-0.347703	0.923386	-0.411346	-0.363223	0.920622	-0.510543	-0.355071	0.927643	-0.458570	-0.245848	0.663045	-0.290366	-0.217088	0.610864	-0.284852	-0.158629	0.637951	-0.287880	-0.180200	0.695573	-0.294469	-0.140902	0.389540	-0.297248	-0.135658	0.378002	-0.394679	-0.302606	0.259824	-0.291830	-0.330945	0.229827	-0.302768	-0.281400	0.194327	-0.308018	-0.257192	0.226152	-0.300242	-0.386949	0.100402	-0.330136	-0.363534	0.110718	-0.408515	-0.440066	0.093811	-0.379110	-0.295209	0.030329	-0.294340	-0.244184	0.044720	-0.369778	-0.217477	0.035536	-0.360516	-0.306688	0.671129	-0.673798	-0.278494	0.619996	-0.693601	-0.220155	0.648398	-0.702077	-0.241638	0.701771	-0.684972	-0.202823	0.395873	-0.716346	-0.174066	0.381827	-0.621805	-0.374260	0.244379	-0.687905	-0.396597	0.213454	-0.673734	-0.344351	0.179839	-0.679121	-0.327114	0.218124	-0.693231	-0.426832	0.104403	-0.661031	-0.409534	0.114894	-0.581665	-0.485188	0.096069	-0.610863	-0.341355	0.037277	-0.689789	-0.291956	0.046360	-0.615221	-0.264592	0.037688	-0.627608	
627	3.1350	-0.279967	1.371875	-0.480150	-0.287533	1.351726	-0.663789	-0.183605	1.348642	-0.310312	-0.156838	1.293300	-0.505440	-0.192892	0.883598	-0.376455	-0.228269	0.882128	-0.603290	-0.245707	0.927027	-0.336512	-0.294668	0.916737	-0.622307	-0.347058	0.925368	-0.411106	-0.362558	0.922530	-0.510209	-0.354388	0.929690	-0.458362	-0.245958	0.665162	-0.290316	-0.217478	0.612840	-0.284832	-0.158874	0.639610	-0.287889	-0.180144	0.697344	-0.294451	-0.142249	0.391032	-0.297181	-0.137292	0.379431	-0.394595	-0.303280	0.260530	-0.291395	-0.331338	0.230398	-0.302108	-0.281833	0.195109	-0.307572	-0.257776	0.227066	-0.299888	-0.386905	0.100612	-0.329479	-0.363686	0.111048	-0.407928	-0.440006	0.093961	-0.378502	-0.295079	0.030282	-0.294129	-0.244258	0.044730	-0.369748	-0.217527	0.035531	-0.360596	-0.307020	0.673332	-0.673563	-0.279086	0.622141	-0.693585	-0.220720	0.650387	-0.702411	-0.241966	0.703807	-0.685132	-0.204268	0.397875	-0.717043	-0.175211	0.383457	-0.622787	-0.374854	0.245429	-0.688700	-0.397043	0.214411	-0.674493	-0.344675	0.180988	-0.680028	-0.327628	0.219361	-0.694159	-0.426707	0.105061	-0.661912	-0.409370	0.115707	-0.582637	-0.484987	0.096893	-0.611873	-0.341244	0.037139	-0.690151	-0.292028	0.046395	-0.615441	-0.264666	0.037692	-0.627657	
628	3.1400	-0.280266	1.375066	-0.480156	-0.287674	1.355542	-0.663546	-0.183474	1.353020	-0.310738	-0.156932	1.296697	-0.505512	-0.192042	0.886631	-0.376206	-0.227334	0.885490	-0.603352	-0.245040	0.929956	-0.336457	-0.294113	0.919814	-0.622090	-0.346170	0.928108	-0.410963	-0.361605	0.925228	-0.510026	-0.353444	0.932489	-0.458255	-0.246176	0.667923	-0.290352	-0.218051	0.615419	-0.284887	-0.159266	0.641792	-0.287933	-0.180150	0.699667	-0.294474	-0.144097	0.393058	-0.297108	-0.139375	0.381327	-0.394497	-0.304290	0.261508	-0.290996	-0.332008	0.231224	-0.301476	-0.282448	0.196211	-0.307092	-0.258596	0.228346	-0.299525	-0.386864	0.100952	-0.328807	-0.363820	0.111520	-0.407320	-0.439923	0.094294	-0.377906	-0.294934	0.030246	-0.293931	-0.244329	0.044729	-0.369724	-0.217590	0.035524	-0.360686	-0.307341	0.676191	-0.673298	-0.279749	0.624872	-0.693452	-0.221326	0.652870	-0.702669	-0.242244	0.706369	-0.685246	-0.206118	0.400372	-0.717445	-0.176823	0.385601	-0.623437	-0.375670	0.246698	-0.689260	-0.397645	0.215551	-0.675038	-0.345109	0.182416	-0.680799	-0.328324	0.220928	-0.694922	-0.426554	0.105870	-0.662716	-0.409168	0.116613	-0.583544	-0.484714	0.097856	-0.612835	-0.341109	0.037019	-0.690435	-0.292067	0.046420	-0.615637	-0.264738	0.037692	-0.627694	
629	3.1450	-0.280683	1.378959	-0.480117	-0.288025	1.360162	-0.663179	-0.183578	1.358263	-0.311156	-0.157077	1.300993	-0.505539	-0.190979	0.890310	-0.375954	-0.226116	0.889498	-0.603433	-0.244231	0.933523	-0.336408	-0.293249	0.923537	-0.621976	-0.345046	0.931611	-0.410917	-0.360376	0.928726	-0.509979	-0.352257	0.936026	-0.458243	-0.246489	0.671340	-0.290475	-0.218795	0.618615	-0.285006	-0.159797	0.644516	-0.288013	-0.180208	0.702555	-0.294549	-0.146420	0.395634	-0.297025	-0.141855	0.383703	-0.394372	-0.305604	0.262809	-0.290647	-0.332915	0.232341	-0.300906	-0.283237	0.197661	-0.306603	-0.259648	0.230031	-0.299159	-0.386799	0.101465	-0.328143	-0.363901	0.112168	-0.406702	-0.439814	0.094853	-0.377317	-0.294773	0.030226	-0.293763	-0.244389	0.044717	-0.369702	-0.217661	0.035516	-0.360780	-0.307633	0.679737	-0.673019	-0.280462	0.628215	-0.693209	-0.221942	0.655881	-0.702821	-0.242437	0.709500	-0.685331	-0.208359	0.403378	-0.717528	-0.178836	0.388295	-0.623750	-0.376676	0.248247	-0.689550	-0.398383	0.216910	-0.675340	-0.345637	0.184152	-0.681395	-0.329190	0.222839	-0.695486	-0.426350	0.106861	-0.663401	-0.408911	0.117629	-0.584337	-0.484351	0.098971	-0.613679	-0.340950	0.036932	-0.690622	-0.292059	0.046434	-0.615804	-0.264799	0.037690	-0.627715	
630	3.1500	-0.281213	1.383510	-0.480037	-0.288581	1.365517	-0.662710	-0.183938	1.364311	-0.311557	-0.157262	1.306145	-0.505528	-0.189707	0.894604	-0.375739	-0.224608	0.894122	-0.603518	-0.243223	0.937757	-0.336391	-0.292024	0.927940	-0.621956	-0.343689	0.935860	-0.410961	-0.358889	0.933020	-0.510073	-0.350850	0.940284	-0.458315	-0.246877	0.675428	-0.290674	-0.219680	0.622446	-0.285183	-0.160443	0.647804	-0.288141	-0.180309	0.706028	-0.294686	-0.149183	0.398778	-0.296929	-0.144697	0.386581	-0.394224	-0.307190	0.264460	-0.290347	-0.334087	0.233777	-0.300438	-0.284178	0.199502	-0.306092	-0.260903	0.232157	-0.298783	-0.386685	0.102183	-0.327513	-0.363908	0.113029	-0.406074	-0.439620	0.095657	-0.376727	-0.294593	0.030220	-0.293630	-0.244436	0.044685	-0.369683	-0.217737	0.035505	-0.360875	-0.307870	0.683990	-0.672740	-0.281188	0.632201	-0.692869	-0.222530	0.659443	-0.702855	-0.242516	0.713212	-0.685362	-0.210970	0.406892	-0.717274	-0.181183	0.391545	-0.623737	-0.377873	0.250063	-0.689539	-0.399231	0.218510	-0.675388	-0.346244	0.186214	-0.681816	-0.330205	0.225112	-0.695839	-0.426085	0.108058	-0.663957	-0.408589	0.118775	-0.585009	-0.483881	0.100261	-0.614402	-0.340770	0.036886	-0.690709	-0.292006	0.046433	-0.615933	-0.264846	0.037681	-0.627716	
631	3.1550	-0.281846	1.388693	-0.479927	-0.289317	1.371550	-0.662152	-0.184505	1.371121	-0.311908	-0.157481	1.312107	-0.505484	-0.188241	0.899485	-0.375596	-0.222808	0.899345	-0.603598	-0.241975	0.942676	-0.336426	-0.290393	0.933057	-0.622012	-0.342118	0.940833	-0.411079	-0.357168	0.938077	-0.510288	-0.349237	0.945215	-0.458473	-0.247317	0.680182	-0.290943	-0.220683	0.626921	-0.285414	-0.161185	0.651675	-0.288325	-0.180442	0.710093	-0.294897	-0.152357	0.402501	-0.296824	-0.147863	0.389986	-0.394068	-0.309024	0.266507	-0.290112	-0.335578	0.235484	-0.300190	-0.285242	0.201755	-0.305552	-0.262337	0.234737	-0.298397	-0.386516	0.103152	-0.326905	-0.363825	0.114141	-0.405401	-0.439334	0.096748	-0.376062	-0.294390	0.030234	-0.293532	-0.244465	0.044634	-0.369666	-0.217815	0.035492	-0.360972	-0.308020	0.688954	-0.672462	-0.281889	0.636849	-0.692482	-0.223041	0.663553	-0.702744	-0.242439	0.717517	-0.685326	-0.213929	0.410908	-0.716678	-0.183828	0.395343	-0.623400	-0.379230	0.252156	-0.689256	-0.400172	0.220348	-0.675193	-0.346906	0.188609	-0.682070	-0.331348	0.227757	-0.695990	-0.425749	0.109463	-0.664399	-0.408197	0.120038	-0.585577	-0.483301	0.101746	-0.615014	-0.340573	0.036881	-0.690697	-0.291910	0.046414	-0.616030	-0.264880	0.037667	-0.627700	
632	3.1600	-0.282549	1.394466	-0.479795	-0.290202	1.378203	-0.661515	-0.185251	1.378629	-0.312205	-0.157749	1.318833	-0.505409	-0.186595	0.904925	-0.375552	-0.220727	0.905148	-0.603669	-0.240456	0.948291	-0.336536	-0.288324	0.938917	-0.622133	-0.340347	0.946488	-0.411269	-0.355237	0.943851	-0.510609	-0.347447	0.950787	-0.458705	-0.247803	0.685595	-0.291280	-0.221781	0.632031	-0.285697	-0.162007	0.656130	-0.288578	-0.180602	0.714749	-0.295194	-0.155900	0.406805	-0.296744	-0.151330	0.393929	-0.393912	-0.311072	0.268921	-0.289971	-0.337309	0.237491	-0.300121	-0.286399	0.204434	-0.304984	-0.263915	0.237769	-0.297980	-0.386287	0.104399	-0.326297	-0.363649	0.115535	-0.404654	-0.438909	0.098141	-0.375303	-0.294159	0.030273	-0.293464	-0.244476	0.044567	-0.369650	-0.217895	0.035474	-0.361070	-0.308047	0.694626	-0.672238	-0.282529	0.642162	-0.692077	-0.223429	0.668202	-0.702490	-0.242175	0.722397	-0.685203	-0.217219	0.415417	-0.715742	-0.186769	0.399668	-0.622741	-0.380728	0.254540	-0.688730	-0.401183	0.222421	-0.674793	-0.347604	0.191351	-0.682168	-0.332597	0.230780	-0.695954	-0.425335	0.111091	-0.664768	-0.407729	0.121459	-0.586092	-0.482604	0.103441	-0.615567	-0.340318	0.036942	-0.690634	-0.291782	0.046378	-0.616097	-0.264914	0.037642	-0.627661	
633	3.1650	-0.283360	1.400841	-0.479616	-0.291197	1.385415	-0.660811	-0.186123	1.386773	-0.312455	-0.158093	1.326257	-0.505310	-0.184788	0.910899	-0.375614	-0.218384	0.911510	-0.603733	-0.238652	0.954588	-0.336745	-0.285814	0.945526	-0.622295	-0.338397	0.952791	-0.411521	-0.353120	0.950290	-0.511025	-0.345499	0.956952	-0.459007	-0.248318	0.691640	-0.291682	-0.222961	0.637769	-0.286033	-0.162896	0.661151	-0.288907	-0.180783	0.719975	-0.295583	-0.159769	0.411692	-0.296703	-0.155057	0.398416	-0.393778	-0.313215	0.271770	-0.289837	-0.339133	0.239891	-0.300041	-0.287630	0.207561	-0.304382	-0.265619	0.241263	-0.297519	-0.385979	0.105976	-0.325652	-0.363342	0.117238	-0.403812	-0.438313	0.099863	-0.374443	-0.293896	0.030344	-0.293415	-0.244465	0.044498	-0.369622	-0.217973	0.035455	-0.361171	-0.307932	0.700968	-0.672088	-0.283071	0.648111	-0.691686	-0.223654	0.673355	-0.702081	-0.241697	0.727823	-0.684992	-0.220816	0.420407	-0.714484	-0.190020	0.404497	-0.621764	-0.382326	0.257230	-0.688026	-0.402237	0.224755	-0.674249	-0.348321	0.194448	-0.682150	-0.333932	0.234174	-0.695766	-0.424829	0.112955	-0.665115	-0.407168	0.123062	-0.586597	-0.481788	0.105362	-0.616108	-0.339992	0.037078	-0.690550	-0.291634	0.046333	-0.616150	-0.264953	0.037625	-0.627619	
634	3.1700	-0.284255	1.407775	-0.479393	-0.292262	1.393123	-0.660056	-0.187103	1.395473	-0.312654	-0.158528	1.334313	-0.505176	-0.182851	0.917372	-0.375776	-0.215812	0.918400	-0.603788	-0.236578	0.961544	-0.337071	-0.282883	0.952855	-0.622482	-0.336292	0.959698	-0.411836	-0.350844	0.957345	-0.511539	-0.343417	0.963674	-0.459381	-0.248851	0.698281	-0.292147	-0.224193	0.644088	-0.286428	-0.163836	0.666705	-0.289320	-0.180975	0.725738	-0.296062	-0.163927	0.417149	-0.296711	-0.159018	0.403434	-0.393677	-0.315461	0.275054	-0.289690	-0.341010	0.242683	-0.299938	-0.288892	0.211142	-0.303719	-0.267399	0.245224	-0.297001	-0.385559	0.107906	-0.324929	-0.362887	0.119272	-0.402849	-0.437529	0.101938	-0.373440	-0.293592	0.030450	-0.293372	-0.244431	0.044423	-0.369585	-0.218054	0.035437	-0.361276	-0.307659	0.707928	-0.672026	-0.283493	0.654646	-0.691319	-0.223693	0.678983	-0.701528	-0.241003	0.733742	-0.684673	-0.224687	0.425859	-0.712926	-0.193597	0.409789	-0.620471	-0.384002	0.260206	-0.687191	-0.403311	0.227337	-0.673602	-0.349034	0.197905	-0.682064	-0.335325	0.237948	-0.695463	-0.424220	0.115060	-0.665483	-0.406524	0.124865	-0.587136	-0.480840	0.107539	-0.616700	-0.339587	0.037289	-0.690465	-0.291479	0.046282	-0.616197	-0.265008	0.037609	-0.627569	
